<mxfile host="app.diagrams.net" modified="2020-04-29T13:38:40.195Z" agent="5.0 (Windows NT 10.0; Win64; x64) AppleWebKit/537.36 (KHTML, like Gecko) Chrome/81.0.4044.113 Safari/537.36" etag="J1sU0b5F_a-c_BlMgpm5" version="13.0.3" type="github">
  <diagram id="Ayu6lZ_QWxF_SbkPnJMy" name="Page-1">
    <mxGraphModel dx="920" dy="552" grid="1" gridSize="10" guides="1" tooltips="1" connect="1" arrows="1" fold="1" page="1" pageScale="1" pageWidth="827" pageHeight="1169" math="0" shadow="0">
      <root>
        <mxCell id="0" />
        <mxCell id="1" parent="0" />
        <mxCell id="JheCykM0N-dgibLzUNRO-3" value="" style="edgeStyle=orthogonalEdgeStyle;rounded=0;orthogonalLoop=1;jettySize=auto;html=1;entryX=0.5;entryY=1;entryDx=0;entryDy=0;" edge="1" parent="1" source="JheCykM0N-dgibLzUNRO-1" target="JheCykM0N-dgibLzUNRO-5">
          <mxGeometry relative="1" as="geometry">
            <mxPoint x="400" y="120" as="targetPoint" />
            <Array as="points">
              <mxPoint x="310" y="185" />
              <mxPoint x="310" y="140" />
            </Array>
          </mxGeometry>
        </mxCell>
        <mxCell id="JheCykM0N-dgibLzUNRO-1" value="Writer" style="rounded=0;whiteSpace=wrap;html=1;fillColor=#d5e8d4;strokeColor=#82b366;fontStyle=1;fontSize=18;" vertex="1" parent="1">
          <mxGeometry x="120" y="150" width="120" height="70" as="geometry" />
        </mxCell>
        <mxCell id="JheCykM0N-dgibLzUNRO-5" value="number" style="ellipse;whiteSpace=wrap;html=1;fillColor=#f5f5f5;strokeColor=#666666;fontColor=#333333;fontStyle=4" vertex="1" parent="1">
          <mxGeometry x="270" y="80" width="70" height="60" as="geometry" />
        </mxCell>
        <mxCell id="JheCykM0N-dgibLzUNRO-7" value="" style="edgeStyle=orthogonalEdgeStyle;rounded=0;orthogonalLoop=1;jettySize=auto;html=1;" edge="1" parent="1" source="JheCykM0N-dgibLzUNRO-6" target="JheCykM0N-dgibLzUNRO-1">
          <mxGeometry relative="1" as="geometry" />
        </mxCell>
        <mxCell id="JheCykM0N-dgibLzUNRO-6" value="First name" style="ellipse;whiteSpace=wrap;html=1;fillColor=#f5f5f5;strokeColor=#666666;fontColor=#333333;" vertex="1" parent="1">
          <mxGeometry x="145" y="40" width="70" height="60" as="geometry" />
        </mxCell>
        <mxCell id="JheCykM0N-dgibLzUNRO-10" value="" style="edgeStyle=orthogonalEdgeStyle;rounded=0;orthogonalLoop=1;jettySize=auto;html=1;entryX=0.25;entryY=0;entryDx=0;entryDy=0;" edge="1" parent="1" source="JheCykM0N-dgibLzUNRO-8" target="JheCykM0N-dgibLzUNRO-1">
          <mxGeometry relative="1" as="geometry">
            <mxPoint x="110" y="180" as="targetPoint" />
          </mxGeometry>
        </mxCell>
        <mxCell id="JheCykM0N-dgibLzUNRO-8" value="Last name&lt;br&gt;" style="ellipse;whiteSpace=wrap;html=1;fillColor=#f5f5f5;strokeColor=#666666;fontColor=#333333;" vertex="1" parent="1">
          <mxGeometry x="10" y="80" width="60" height="50" as="geometry" />
        </mxCell>
        <mxCell id="JheCykM0N-dgibLzUNRO-13" value="" style="edgeStyle=orthogonalEdgeStyle;rounded=0;orthogonalLoop=1;jettySize=auto;html=1;entryX=0.75;entryY=1;entryDx=0;entryDy=0;" edge="1" parent="1" source="JheCykM0N-dgibLzUNRO-11" target="JheCykM0N-dgibLzUNRO-1">
          <mxGeometry relative="1" as="geometry">
            <mxPoint x="220" y="260" as="targetPoint" />
          </mxGeometry>
        </mxCell>
        <mxCell id="JheCykM0N-dgibLzUNRO-11" value="Address" style="ellipse;whiteSpace=wrap;html=1;fillColor=#f5f5f5;strokeColor=#666666;fontColor=#333333;" vertex="1" parent="1">
          <mxGeometry x="210" y="260" width="60" height="60" as="geometry" />
        </mxCell>
        <mxCell id="JheCykM0N-dgibLzUNRO-14" value="" style="edgeStyle=entityRelationEdgeStyle;fontSize=12;html=1;endArrow=ERoneToMany;startArrow=ERzeroToOne;" edge="1" parent="1">
          <mxGeometry width="100" height="100" relative="1" as="geometry">
            <mxPoint x="462" y="185" as="sourcePoint" />
            <mxPoint x="610" y="150" as="targetPoint" />
          </mxGeometry>
        </mxCell>
        <mxCell id="JheCykM0N-dgibLzUNRO-16" value="Publisher" style="rounded=0;whiteSpace=wrap;html=1;fillColor=#d5e8d4;strokeColor=#82b366;fontStyle=1;fontSize=18;" vertex="1" parent="1">
          <mxGeometry x="610" y="120" width="120" height="60" as="geometry" />
        </mxCell>
        <mxCell id="JheCykM0N-dgibLzUNRO-18" style="edgeStyle=orthogonalEdgeStyle;rounded=0;orthogonalLoop=1;jettySize=auto;html=1;entryX=0.335;entryY=-0.004;entryDx=0;entryDy=0;entryPerimeter=0;" edge="1" parent="1" source="JheCykM0N-dgibLzUNRO-17" target="JheCykM0N-dgibLzUNRO-16">
          <mxGeometry relative="1" as="geometry" />
        </mxCell>
        <mxCell id="JheCykM0N-dgibLzUNRO-17" value="Name" style="ellipse;whiteSpace=wrap;html=1;fillColor=#f5f5f5;strokeColor=#666666;fontColor=#333333;" vertex="1" parent="1">
          <mxGeometry x="620" y="20" width="60" height="60" as="geometry" />
        </mxCell>
        <mxCell id="JheCykM0N-dgibLzUNRO-20" style="edgeStyle=orthogonalEdgeStyle;rounded=0;orthogonalLoop=1;jettySize=auto;html=1;entryX=0.25;entryY=1;entryDx=0;entryDy=0;" edge="1" parent="1" source="JheCykM0N-dgibLzUNRO-19" target="JheCykM0N-dgibLzUNRO-16">
          <mxGeometry relative="1" as="geometry" />
        </mxCell>
        <mxCell id="JheCykM0N-dgibLzUNRO-19" value="Address" style="ellipse;whiteSpace=wrap;html=1;fillColor=#f5f5f5;strokeColor=#666666;fontColor=#333333;" vertex="1" parent="1">
          <mxGeometry x="560" y="220" width="70" height="70" as="geometry" />
        </mxCell>
        <mxCell id="JheCykM0N-dgibLzUNRO-22" value="" style="edgeStyle=orthogonalEdgeStyle;rounded=0;orthogonalLoop=1;jettySize=auto;html=1;" edge="1" parent="1" source="JheCykM0N-dgibLzUNRO-21" target="JheCykM0N-dgibLzUNRO-16">
          <mxGeometry relative="1" as="geometry" />
        </mxCell>
        <mxCell id="JheCykM0N-dgibLzUNRO-21" value="Code" style="ellipse;whiteSpace=wrap;html=1;aspect=fixed;fillColor=#f5f5f5;strokeColor=#666666;fontColor=#333333;fontStyle=4" vertex="1" parent="1">
          <mxGeometry x="680" y="215" width="65" height="65" as="geometry" />
        </mxCell>
        <mxCell id="JheCykM0N-dgibLzUNRO-23" value="" style="edgeStyle=entityRelationEdgeStyle;fontSize=12;html=1;endArrow=ERoneToMany;entryX=0;entryY=0.5;entryDx=0;entryDy=0;exitX=1;exitY=0.25;exitDx=0;exitDy=0;" edge="1" parent="1" source="JheCykM0N-dgibLzUNRO-26" target="JheCykM0N-dgibLzUNRO-1">
          <mxGeometry width="100" height="100" relative="1" as="geometry">
            <mxPoint x="70" y="400" as="sourcePoint" />
            <mxPoint x="170" y="300" as="targetPoint" />
          </mxGeometry>
        </mxCell>
        <mxCell id="JheCykM0N-dgibLzUNRO-26" value="works" style="rounded=0;whiteSpace=wrap;html=1;fillColor=#d5e8d4;strokeColor=#82b366;fontStyle=1;fontSize=18;" vertex="1" parent="1">
          <mxGeometry x="80" y="440" width="80" height="50" as="geometry" />
        </mxCell>
        <mxCell id="JheCykM0N-dgibLzUNRO-31" value="" style="edgeStyle=orthogonalEdgeStyle;rounded=0;orthogonalLoop=1;jettySize=auto;html=1;entryX=0.25;entryY=1;entryDx=0;entryDy=0;" edge="1" parent="1" source="JheCykM0N-dgibLzUNRO-29" target="JheCykM0N-dgibLzUNRO-26">
          <mxGeometry relative="1" as="geometry">
            <mxPoint x="50" y="450" as="targetPoint" />
          </mxGeometry>
        </mxCell>
        <mxCell id="JheCykM0N-dgibLzUNRO-29" value="Duration&lt;br&gt;" style="ellipse;whiteSpace=wrap;html=1;aspect=fixed;fillColor=#f5f5f5;strokeColor=#666666;fontColor=#333333;" vertex="1" parent="1">
          <mxGeometry x="20" y="530" width="60" height="60" as="geometry" />
        </mxCell>
        <mxCell id="JheCykM0N-dgibLzUNRO-33" value="" style="edgeStyle=orthogonalEdgeStyle;rounded=0;orthogonalLoop=1;jettySize=auto;html=1;" edge="1" parent="1" source="JheCykM0N-dgibLzUNRO-32" target="JheCykM0N-dgibLzUNRO-26">
          <mxGeometry relative="1" as="geometry" />
        </mxCell>
        <mxCell id="JheCykM0N-dgibLzUNRO-32" value="title" style="ellipse;whiteSpace=wrap;html=1;aspect=fixed;fillColor=#f5f5f5;strokeColor=#666666;fontColor=#333333;fontStyle=4" vertex="1" parent="1">
          <mxGeometry x="120" y="530" width="60" height="60" as="geometry" />
        </mxCell>
        <mxCell id="JheCykM0N-dgibLzUNRO-36" value="" style="edgeStyle=orthogonalEdgeStyle;rounded=0;orthogonalLoop=1;jettySize=auto;html=1;entryX=1;entryY=0.75;entryDx=0;entryDy=0;" edge="1" parent="1" source="JheCykM0N-dgibLzUNRO-34" target="JheCykM0N-dgibLzUNRO-26">
          <mxGeometry relative="1" as="geometry">
            <mxPoint x="200" y="500.0000000000002" as="targetPoint" />
          </mxGeometry>
        </mxCell>
        <mxCell id="JheCykM0N-dgibLzUNRO-34" value="description&lt;br&gt;" style="ellipse;whiteSpace=wrap;html=1;aspect=fixed;fillColor=#f5f5f5;strokeColor=#666666;fontColor=#333333;" vertex="1" parent="1">
          <mxGeometry x="240" y="550" width="70" height="70" as="geometry" />
        </mxCell>
        <mxCell id="JheCykM0N-dgibLzUNRO-37" value="Write&lt;br&gt;" style="rhombus;whiteSpace=wrap;html=1;fillColor=#f8cecc;strokeColor=#b85450;" vertex="1" parent="1">
          <mxGeometry x="150" y="340" width="80" height="80" as="geometry" />
        </mxCell>
        <mxCell id="JheCykM0N-dgibLzUNRO-41" value="" style="edgeStyle=orthogonalEdgeStyle;rounded=0;orthogonalLoop=1;jettySize=auto;html=1;" edge="1" parent="1" source="JheCykM0N-dgibLzUNRO-39" target="JheCykM0N-dgibLzUNRO-37">
          <mxGeometry relative="1" as="geometry">
            <mxPoint x="280" y="360" as="targetPoint" />
          </mxGeometry>
        </mxCell>
        <mxCell id="JheCykM0N-dgibLzUNRO-39" value="percentage&lt;br&gt;" style="ellipse;whiteSpace=wrap;html=1;fillColor=#f5f5f5;strokeColor=#666666;fontColor=#333333;" vertex="1" parent="1">
          <mxGeometry x="280" y="340" width="80" height="60" as="geometry" />
        </mxCell>
        <mxCell id="JheCykM0N-dgibLzUNRO-42" value="&lt;span style=&quot;font-family: sans-serif ; font-size: 13.6871px ; font-style: normal ; font-weight: 400 ; letter-spacing: normal ; text-indent: 0px ; text-transform: none ; word-spacing: 0px ; background-color: rgb(242 , 242 , 242) ; float: none ; display: inline&quot;&gt;Works get performed at concerts (or music shows) by an act.(?)&lt;/span&gt;" style="text;whiteSpace=wrap;html=1;" vertex="1" parent="1">
          <mxGeometry x="270" y="410" width="410" height="30" as="geometry" />
        </mxCell>
        <mxCell id="JheCykM0N-dgibLzUNRO-44" value="concert" style="rounded=0;whiteSpace=wrap;html=1;fillColor=#d5e8d4;strokeColor=#82b366;fontStyle=1;fontSize=18;" vertex="1" parent="1">
          <mxGeometry x="550" y="460" width="90" height="50" as="geometry" />
        </mxCell>
        <mxCell id="JheCykM0N-dgibLzUNRO-50" value="" style="edgeStyle=orthogonalEdgeStyle;rounded=0;orthogonalLoop=1;jettySize=auto;html=1;entryX=0.75;entryY=1;entryDx=0;entryDy=0;" edge="1" parent="1" source="JheCykM0N-dgibLzUNRO-45" target="JheCykM0N-dgibLzUNRO-44">
          <mxGeometry relative="1" as="geometry">
            <mxPoint x="710" y="450" as="targetPoint" />
          </mxGeometry>
        </mxCell>
        <mxCell id="JheCykM0N-dgibLzUNRO-45" value="venue" style="ellipse;whiteSpace=wrap;html=1;fillColor=#f5f5f5;strokeColor=#666666;fontColor=#333333;fontStyle=4" vertex="1" parent="1">
          <mxGeometry x="680" y="530" width="60" height="50" as="geometry" />
        </mxCell>
        <mxCell id="JheCykM0N-dgibLzUNRO-48" value="" style="edgeStyle=orthogonalEdgeStyle;rounded=0;orthogonalLoop=1;jettySize=auto;html=1;entryX=0.25;entryY=1;entryDx=0;entryDy=0;" edge="1" parent="1" source="JheCykM0N-dgibLzUNRO-46" target="JheCykM0N-dgibLzUNRO-44">
          <mxGeometry relative="1" as="geometry">
            <mxPoint x="535" y="480" as="targetPoint" />
          </mxGeometry>
        </mxCell>
        <mxCell id="JheCykM0N-dgibLzUNRO-46" value="date&lt;br&gt;" style="ellipse;whiteSpace=wrap;html=1;fillColor=#f5f5f5;strokeColor=#666666;fontColor=#333333;" vertex="1" parent="1">
          <mxGeometry x="500" y="560" width="70" height="60" as="geometry" />
        </mxCell>
        <mxCell id="JheCykM0N-dgibLzUNRO-51" value="" style="edgeStyle=entityRelationEdgeStyle;fontSize=12;html=1;endArrow=ERzeroToMany;endFill=1;startArrow=ERzeroToMany;exitX=1;exitY=0.5;exitDx=0;exitDy=0;" edge="1" parent="1" source="JheCykM0N-dgibLzUNRO-52">
          <mxGeometry width="100" height="100" relative="1" as="geometry">
            <mxPoint x="450" y="580" as="sourcePoint" />
            <mxPoint x="550" y="480" as="targetPoint" />
          </mxGeometry>
        </mxCell>
        <mxCell id="JheCykM0N-dgibLzUNRO-52" value="performed" style="rhombus;whiteSpace=wrap;html=1;fillColor=#f8cecc;strokeColor=#b85450;" vertex="1" parent="1">
          <mxGeometry x="390" y="460" width="80" height="80" as="geometry" />
        </mxCell>
        <mxCell id="JheCykM0N-dgibLzUNRO-53" value="" style="edgeStyle=entityRelationEdgeStyle;fontSize=12;html=1;endArrow=ERzeroToMany;endFill=1;startArrow=ERzeroToMany;exitX=1;exitY=0.5;exitDx=0;exitDy=0;" edge="1" parent="1" source="JheCykM0N-dgibLzUNRO-26" target="JheCykM0N-dgibLzUNRO-52">
          <mxGeometry width="100" height="100" relative="1" as="geometry">
            <mxPoint x="160" y="465" as="sourcePoint" />
            <mxPoint x="550" y="480" as="targetPoint" />
          </mxGeometry>
        </mxCell>
        <mxCell id="JheCykM0N-dgibLzUNRO-15" value="signed" style="rhombus;whiteSpace=wrap;html=1;fillColor=#f8cecc;strokeColor=#b85450;" vertex="1" parent="1">
          <mxGeometry x="380" y="145" width="80" height="80" as="geometry" />
        </mxCell>
        <mxCell id="JheCykM0N-dgibLzUNRO-54" value="" style="edgeStyle=entityRelationEdgeStyle;fontSize=12;html=1;endArrow=ERoneToMany;startArrow=ERzeroToOne;exitX=1.022;exitY=0.876;exitDx=0;exitDy=0;exitPerimeter=0;" edge="1" parent="1" source="JheCykM0N-dgibLzUNRO-1" target="JheCykM0N-dgibLzUNRO-15">
          <mxGeometry width="100" height="100" relative="1" as="geometry">
            <mxPoint x="242.6400000000001" y="211.31999999999994" as="sourcePoint" />
            <mxPoint x="610" y="149.9999999999999" as="targetPoint" />
          </mxGeometry>
        </mxCell>
        <mxCell id="JheCykM0N-dgibLzUNRO-55" value="" style="endArrow=none;html=1;" edge="1" parent="1">
          <mxGeometry width="50" height="50" relative="1" as="geometry">
            <mxPoint x="390" y="320" as="sourcePoint" />
            <mxPoint x="440" y="270" as="targetPoint" />
          </mxGeometry>
        </mxCell>
      </root>
    </mxGraphModel>
  </diagram>
</mxfile>
